<svg xmlns="http://www.w3.org/2000/svg" viewBox="0 0 165.05 53.41"><defs><style>.cls-1,.cls-3,.cls-4{fill:none;stroke:#1d1d1b;}.cls-1{stroke-width:0.5px;}.cls-2{fill:#1d1d1b;}.cls-3,.cls-4{stroke-miterlimit:10;}.cls-3{stroke-width:3px;}</style></defs><title>logop</title><g id="Capa_2" data-name="Capa 2"><g id="Guías"><path class="cls-1" d="M15.62,5.33a20.86,20.86,0,0,1,3.28-.25,5.41,5.41,0,0,1,3.71,1.1A3.55,3.55,0,0,1,23.77,9a3.89,3.89,0,0,1-1,2.83,5.47,5.47,0,0,1-4,1.45,5.81,5.81,0,0,1-1.38-.12v5.3H15.62Zm1.71,6.39a5.72,5.72,0,0,0,1.42.13c2.06,0,3.31-1,3.31-2.82s-1.23-2.6-3.12-2.6a7.12,7.12,0,0,0-1.61.14Z"/><path class="cls-1" d="M26.56,14.25l-1.37,4.16H23.42l4.5-13.23H30l4.51,13.23H32.67l-1.42-4.16Zm4.34-1.34-1.3-3.8c-.29-.87-.49-1.65-.68-2.42h0c-.2.79-.41,1.59-.67,2.4l-1.3,3.82Z"/><path class="cls-1" d="M42.05,11.28v0a3.42,3.42,0,0,1,2.73,3.32,3.54,3.54,0,0,1-1.12,2.65c-.92.85-2.41,1.24-4.57,1.24a19.58,19.58,0,0,1-2.65-.16v-13a17.13,17.13,0,0,1,3.12-.27,5.44,5.44,0,0,1,3.63,1,2.77,2.77,0,0,1,1.1,2.34,2.68,2.68,0,0,1-.19,1"/><path class="cls-2" d="M43.66,9.19a.47.47,0,1,0,.61-.25A.46.46,0,0,0,43.66,9.19Z"/><path class="cls-1" d="M42.56,8.56c0-1.56-1.17-2.16-2.9-2.16a7.34,7.34,0,0,0-1.51.11v4.26h1.1"/><circle class="cls-2" cx="39.23" cy="10.77" r="0.47"/><path class="cls-1" d="M38.15,17.12a8.88,8.88,0,0,0,1.43.08c1.77,0,3.4-.65,3.4-2.58s-1.55-2.55-3.42-2.55H38.15v4.6"/><circle class="cls-2" cx="38.15" cy="16.65" r="0.47"/><polyline class="cls-1" points="48.79 15.08 48.79 16.98 54.45 16.98 54.45 18.41 47.08 18.41 47.08 5.18 48.79 5.18 48.79 8.7"/><circle class="cls-2" cx="48.79" cy="15.1" r="0.47"/><circle class="cls-2" cx="48.79" cy="8.67" r="0.47"/><path class="cls-1" d="M66.89,11.66c0,4.55-2.76,7-6.14,7s-6-2.71-6-6.72C54.8,7.71,57.41,5,60.94,5S66.89,7.73,66.89,11.66Zm-10.27.21c0,2.83,1.54,5.37,4.23,5.37s4.24-2.5,4.24-5.5c0-2.63-1.38-5.38-4.22-5.38S56.62,9,56.62,11.87Z"/><path class="cls-1" d="M73.28,5.33a20.65,20.65,0,0,1,3.28-.25,5.44,5.44,0,0,1,3.71,1.1A3.58,3.58,0,0,1,81.43,9a3.9,3.9,0,0,1-1,2.83,5.47,5.47,0,0,1-4,1.45A5.86,5.86,0,0,1,75,13.11v5.3h-1.7ZM75,11.72a5.77,5.77,0,0,0,1.42.13c2.06,0,3.32-1,3.32-2.82s-1.24-2.6-3.13-2.6A7.12,7.12,0,0,0,75,6.57Z"/><path class="cls-1" d="M83.72,5.18h1.71V17h5.66v1.43H83.72Z"/><path class="cls-1" d="M103.54,11.66c0,4.55-2.77,7-6.15,7s-6-2.71-6-6.72c0-4.2,2.61-6.95,6.15-6.95S103.54,7.73,103.54,11.66Zm-10.27.21c0,2.83,1.53,5.37,4.22,5.37s4.24-2.5,4.24-5.5c0-2.63-1.37-5.38-4.22-5.38S93.27,9,93.27,11.87Z"/><path class="cls-1" d="M116.91,12.6c-.1-1.85-.22-4.06-.2-5.71h-.06c-.45,1.55-1,3.2-1.67,5l-2.33,6.43h-1.3L109.21,12c-.63-1.86-1.16-3.57-1.53-5.14h0c0,1.65-.14,3.86-.26,5.85L107,18.41H105.4l.92-13.23h2.18l2.26,6.4c.55,1.63,1,3.08,1.34,4.46h.06c.33-1.34.8-2.79,1.39-4.46l2.36-6.4h2.18l.82,13.23h-1.67Z"/><path class="cls-1" d="M139,12.21h-5.15V17h5.74v1.43h-7.45V5.18h7.15V6.61h-5.44v4.18H139Z"/><path class="cls-1" d="M141.85,5.35a18.4,18.4,0,0,1,3.28-.27A5.37,5.37,0,0,1,149,6.16,3.29,3.29,0,0,1,150,8.67a3.47,3.47,0,0,1-2.5,3.38v.06a3.32,3.32,0,0,1,1.95,2.67,20.26,20.26,0,0,0,1,3.63H148.7a16.55,16.55,0,0,1-.88-3.16c-.4-1.82-1.1-2.51-2.66-2.57h-1.61v5.73h-1.7Zm1.7,6h1.75c1.83,0,3-1,3-2.51,0-1.71-1.24-2.46-3-2.47a7.14,7.14,0,0,0-1.69.15Z"/><path class="cls-1" d="M127.16,11.28v0a3.42,3.42,0,0,1,2.73,3.32,3.54,3.54,0,0,1-1.12,2.65c-.92.85-2.42,1.24-4.58,1.24a19.7,19.7,0,0,1-2.65-.16v-13a17.3,17.3,0,0,1,3.12-.27,5.49,5.49,0,0,1,3.64,1,2.77,2.77,0,0,1,1.1,2.34,2.89,2.89,0,0,1-.19,1"/><path class="cls-2" d="M128.76,9.19a.46.46,0,0,0,.25.61.47.47,0,0,0,.62-.25.46.46,0,0,0-.25-.61A.47.47,0,0,0,128.76,9.19Z"/><path class="cls-1" d="M127.67,8.56c0-1.56-1.18-2.16-2.91-2.16a7.49,7.49,0,0,0-1.51.11v4.26h1.1"/><circle class="cls-2" cx="124.33" cy="10.77" r="0.47"/><path class="cls-1" d="M123.25,17.12a8.88,8.88,0,0,0,1.43.08c1.77,0,3.4-.65,3.4-2.58s-1.55-2.55-3.42-2.55h-1.41v4.6"/><circle class="cls-2" cx="123.25" cy="16.65" r="0.47"/><path class="cls-2" d="M51.42,39.11c-.06-1.13-.14-2.48-.12-3.49h0c-.28,1-.61,2-1,3.07l-1.43,3.92H48l-1.31-3.85c-.38-1.14-.7-2.18-.93-3.14h0c0,1-.08,2.36-.15,3.58l-.22,3.46h-1L45,34.58h1.33l1.38,3.91c.34,1,.61,1.88.82,2.72h0c.21-.82.5-1.7.85-2.72l1.44-3.91h1.34l.5,8.08h-1Z"/><path class="cls-2" d="M55.29,34.58v4.78c0,1.81.81,2.58,1.89,2.58s2-.79,2-2.58V34.58H60.2v4.71c0,2.48-1.31,3.5-3.06,3.5s-2.9-.94-2.9-3.45V34.58Z"/><path class="cls-2" d="M62,34.58h1v7.21h3.45v.87H62Z"/><path class="cls-2" d="M68.16,35.47H65.7v-.89h6v.89H69.21v7.19h-1Z"/><path class="cls-2" d="M73.63,34.58v8.08h-1V34.58Z"/><path class="cls-2" d="M75.31,41.39a3.68,3.68,0,0,0,1.87.53c1.07,0,1.69-.57,1.69-1.38s-.43-1.19-1.52-1.61c-1.32-.47-2.13-1.15-2.13-2.29a2.32,2.32,0,0,1,2.61-2.19,3.73,3.73,0,0,1,1.79.39l-.29.85a3.25,3.25,0,0,0-1.54-.38c-1.1,0-1.52.66-1.52,1.21,0,.76.49,1.13,1.61,1.56,1.36.53,2.06,1.19,2.06,2.37s-.92,2.33-2.83,2.33a4.25,4.25,0,0,1-2.06-.51Z"/><path class="cls-2" d="M85.56,38.87H82.41v2.92h3.51v.87H81.37V34.58h4.37v.87H82.41V38h3.15Z"/><path class="cls-2" d="M87.27,34.69a10.77,10.77,0,0,1,2-.17,3.31,3.31,0,0,1,2.34.66,2,2,0,0,1,.63,1.53,2.13,2.13,0,0,1-1.52,2.07v0a2,2,0,0,1,1.19,1.63,12.33,12.33,0,0,0,.62,2.22H91.46a10.79,10.79,0,0,1-.54-1.93c-.24-1.11-.67-1.53-1.62-1.57h-1v3.5h-1Zm1,3.68h1.07c1.11,0,1.82-.61,1.82-1.54s-.76-1.5-1.86-1.51a4.15,4.15,0,0,0-1,.1Z"/><path class="cls-2" d="M95.7,42.66l-2.64-8.08h1.13l1.26,4c.34,1.09.64,2.07.86,3h0c.23-.93.57-1.95.93-3l1.36-4h1.12l-2.89,8.08Z"/><path class="cls-2" d="M101.66,34.58v8.08h-1V34.58Z"/><path class="cls-2" d="M109.14,42.4a5.29,5.29,0,0,1-2.14.38,3.77,3.77,0,0,1-4-4.09,4,4,0,0,1,4.22-4.24,4.26,4.26,0,0,1,1.92.36l-.25.85a3.85,3.85,0,0,0-1.64-.34,3,3,0,0,0-3.15,3.34,2.94,2.94,0,0,0,3.11,3.25,4.24,4.24,0,0,0,1.7-.34Z"/><path class="cls-2" d="M114.63,38.87h-3.14v2.92H115v.87h-4.54V34.58h4.36v.87h-3.32V38h3.14Z"/><path class="cls-2" d="M116.21,41.39a3.65,3.65,0,0,0,1.87.53c1.07,0,1.69-.57,1.69-1.38s-.43-1.19-1.52-1.61c-1.32-.47-2.14-1.15-2.14-2.29s1-2.19,2.62-2.19a3.72,3.72,0,0,1,1.78.39l-.29.85a3.24,3.24,0,0,0-1.53-.38c-1.1,0-1.52.66-1.52,1.21,0,.76.49,1.13,1.6,1.56,1.37.53,2.07,1.19,2.07,2.37s-.93,2.33-2.83,2.33a4.29,4.29,0,0,1-2.07-.51Z"/><line class="cls-3" x1="5.36" y1="26.54" x2="159.69" y2="26.54"/><path class="cls-2" d="M5.64,32.18a5.64,5.64,0,1,1,5.64-5.64A5.65,5.65,0,0,1,5.64,32.18Z"/><path class="cls-2" d="M159.41,32.18a5.64,5.64,0,1,0-5.64-5.64A5.65,5.65,0,0,0,159.41,32.18Z"/><line class="cls-4" x1="42.93" y1="50.7" x2="120.68" y2="50.7"/><path class="cls-2" d="M43.06,53.41a2.71,2.71,0,1,1,2.71-2.71A2.7,2.7,0,0,1,43.06,53.41Z"/><path class="cls-2" d="M120.54,53.41a2.71,2.71,0,1,0-2.7-2.71A2.71,2.71,0,0,0,120.54,53.41Z"/><polyline class="cls-1" points="125.15 22.59 11.79 22.59 11.79 6.8"/><circle class="cls-2" cx="125.13" cy="22.59" r="0.47"/><circle class="cls-2" cx="11.79" cy="6.83" r="0.47"/><polyline class="cls-1" points="74.08 0.47 154.06 0.47 154.06 16.25"/><circle class="cls-2" cx="74.1" cy="0.47" r="0.47"/><circle class="cls-2" cx="154.06" cy="16.23" r="0.47"/></g></g></svg>