<svg xmlns="http://www.w3.org/2000/svg" viewBox="0 0 974.02 291.82"><defs><style>.a5d735b3-29b9-426b-8226-06185766c8a5,.a789a70e-1d66-4514-9c67-37f1f97f20c6,.b0e38108-e78d-470f-9a7b-7b6e68a825d3,.e3ed8a22-b9d1-44ee-bec1-319bc215d142,.e46c905a-9d9f-4a9d-8b65-ccad2395b82e{fill:none;}.a5d735b3-29b9-426b-8226-06185766c8a5,.a789a70e-1d66-4514-9c67-37f1f97f20c6,.b0e38108-e78d-470f-9a7b-7b6e68a825d3,.bfd41985-5bfd-458a-a89e-a4adbb4d0d4d,.e3ed8a22-b9d1-44ee-bec1-319bc215d142,.e46c905a-9d9f-4a9d-8b65-ccad2395b82e{stroke:#1d1d1b;}.a789a70e-1d66-4514-9c67-37f1f97f20c6{stroke-width:0.5px;}.e46b86c0-91c1-4641-a639-c2803cfce036{fill:#1d1d1b;}.a5d735b3-29b9-426b-8226-06185766c8a5,.bfd41985-5bfd-458a-a89e-a4adbb4d0d4d,.e3ed8a22-b9d1-44ee-bec1-319bc215d142,.e46c905a-9d9f-4a9d-8b65-ccad2395b82e{stroke-miterlimit:10;}.a5d735b3-29b9-426b-8226-06185766c8a5{stroke-width:4px;}.e46c905a-9d9f-4a9d-8b65-ccad2395b82e{stroke-width:2px;}.b0e38108-e78d-470f-9a7b-7b6e68a825d3,.e3ed8a22-b9d1-44ee-bec1-319bc215d142{stroke-width:3px;}.bfd41985-5bfd-458a-a89e-a4adbb4d0d4d{fill:#fff;}</style></defs><title>logo2</title><g id="fbbd8327-acd1-46c1-9763-d85fc57ed702" data-name="Capa 2"><g id="bf995aaa-e1a8-4d5d-86c7-c100ffb8f158" data-name="Capa 1"><path class="a789a70e-1d66-4514-9c67-37f1f97f20c6" d="M92.2,33.78a117.1,117.1,0,0,1,19.35-1.5c10,0,17.27,2.32,21.9,6.49,4.29,3.71,6.85,9.39,6.85,16.34s-2.09,12.63-6,16.69c-5.33,5.68-14,8.57-23.88,8.57a34.7,34.7,0,0,1-8.11-.69V111H92.2Zm10.08,37.67a33.84,33.84,0,0,0,8.35.81c12.16,0,19.58-5.91,19.58-16.68,0-10.32-7.3-15.31-18.42-15.31a42.43,42.43,0,0,0-9.51.82Z"/><path class="a789a70e-1d66-4514-9c67-37f1f97f20c6" d="M156.74,86.4,148.63,111H138.2l26.54-78.11h12.17L203.56,111H192.79L184.44,86.4Zm25.61-7.88L174.71,56c-1.74-5.1-2.9-9.74-4.06-14.26h-.23c-1.16,4.64-2.43,9.39-3.94,14.14l-7.65,22.6Z"/><path class="a789a70e-1d66-4514-9c67-37f1f97f20c6" d="M248.18,68.9v.24c7.42,1.85,16.11,8,16.11,19.58a21.08,21.08,0,0,1-6.61,15.65c-5.45,5-14.25,7.3-27,7.3a118.5,118.5,0,0,1-15.65-.93V33.9a97.49,97.49,0,0,1,18.43-1.62C243.54,32.28,250,34,254.9,38c4.06,3,6.49,7.65,6.49,13.79a16.63,16.63,0,0,1-2,7.86"/><path class="e46b86c0-91c1-4641-a639-c2803cfce036" d="M258.82,59.27a.67.67,0,0,0,.3.89.66.66,0,0,0,.59-1.18A.67.67,0,0,0,258.82,59.27Z"/><path class="a789a70e-1d66-4514-9c67-37f1f97f20c6" d="M251.19,52.79C251.19,43.63,244.24,40,234,40a43,43,0,0,0-8.92.7V65.89h8.52"/><circle class="e46b86c0-91c1-4641-a639-c2803cfce036" cx="233.61" cy="65.89" r="0.66"/><path class="a789a70e-1d66-4514-9c67-37f1f97f20c6" d="M225.12,103.32a53.61,53.61,0,0,0,8.46.46c10.43,0,20-3.82,20-15.18,0-10.66-9.16-15.06-20.17-15.06h-8.34V102.7"/><path class="e46b86c0-91c1-4641-a639-c2803cfce036" d="M224.46,102.66a.66.66,0,1,0,.66-.65A.65.65,0,0,0,224.46,102.66Z"/><polyline class="a789a70e-1d66-4514-9c67-37f1f97f20c6" points="287.93 89.29 287.93 102.51 321.3 102.51 321.3 110.97 277.84 110.97 277.84 32.86 287.93 32.86 287.93 55.64"/><circle class="e46b86c0-91c1-4641-a639-c2803cfce036" cx="287.93" cy="89.32" r="0.66"/><circle class="e46b86c0-91c1-4641-a639-c2803cfce036" cx="287.93" cy="55.61" r="0.66"/><path class="a789a70e-1d66-4514-9c67-37f1f97f20c6" d="M394.77,71.1c0,26.89-16.34,41.14-36.27,41.14-20.63,0-35.12-16-35.12-39.63,0-24.8,15.42-41,36.28-41C381,31.58,394.77,47.93,394.77,71.1Zm-60.61,1.28c0,16.68,9,31.63,24.92,31.63s25-14.71,25-32.44c0-15.53-8.11-31.76-24.91-31.76S334.16,55.22,334.16,72.38Z"/><path class="a789a70e-1d66-4514-9c67-37f1f97f20c6" d="M432.43,33.78a117.14,117.14,0,0,1,19.36-1.5c10,0,17.26,2.32,21.9,6.49,4.28,3.71,6.84,9.39,6.84,16.34s-2.09,12.63-6,16.69c-5.33,5.68-14,8.57-23.88,8.57a34.7,34.7,0,0,1-8.11-.69V111H432.43Zm10.08,37.67a33.89,33.89,0,0,0,8.35.81c12.16,0,19.58-5.91,19.58-16.68,0-10.32-7.3-15.31-18.42-15.31a42.43,42.43,0,0,0-9.51.82Z"/><path class="a789a70e-1d66-4514-9c67-37f1f97f20c6" d="M494.08,32.86h10.09v69.65h33.37V111H494.08Z"/><path class="a789a70e-1d66-4514-9c67-37f1f97f20c6" d="M611,71.1c0,26.89-16.34,41.14-36.27,41.14-20.63,0-35.12-16-35.12-39.63,0-24.8,15.41-41,36.28-41C597.22,31.58,611,47.93,611,71.1ZM550.4,72.38c0,16.68,9,31.63,24.92,31.63s25-14.71,25-32.44c0-15.53-8.11-31.76-24.92-31.76S550.4,55.22,550.4,72.38Z"/><path class="a789a70e-1d66-4514-9c67-37f1f97f20c6" d="M689.93,76.67c-.58-10.9-1.28-24-1.16-33.73h-.35c-2.67,9.15-5.91,18.89-9.85,29.67l-13.79,37.9h-7.65L644.5,73.3c-3.71-11-6.84-21.08-9-30.36h-.23c-.23,9.74-.82,22.83-1.51,34.54L631.63,111H622l5.45-78.11h12.87l13.32,37.78c3.25,9.62,5.91,18.19,7.89,26.31h.34c2-7.89,4.75-16.46,8.23-26.31L684,32.86h12.86L701.75,111H691.9Z"/><path class="a789a70e-1d66-4514-9c67-37f1f97f20c6" d="M820.52,74.35H790.16v28.16H824V111H780.08V32.86h42.18v8.46h-32.1V66h30.36Z"/><path class="a789a70e-1d66-4514-9c67-37f1f97f20c6" d="M837.09,33.9a105.33,105.33,0,0,1,19.36-1.62c10.78,0,17.73,2,22.6,6.37,3.94,3.48,6.14,8.81,6.14,14.84,0,10.31-6.49,17.15-14.72,19.93v.35c6,2.09,9.62,7.65,11.48,15.76,2.54,10.89,4.4,18.43,6,21.44H877.54c-1.28-2.2-3-8.92-5.21-18.66-2.32-10.78-6.5-14.83-15.65-15.18h-9.5V111H837.09Zm10.09,35.58h10.31c10.78,0,17.62-5.91,17.62-14.83,0-10.09-7.31-14.49-18-14.61a41.06,41.06,0,0,0-10,.93Z"/><path class="a789a70e-1d66-4514-9c67-37f1f97f20c6" d="M750.42,68.9v.24c7.42,1.85,16.11,8,16.11,19.58a21.08,21.08,0,0,1-6.61,15.65c-5.45,5-14.25,7.3-27,7.3a118.5,118.5,0,0,1-15.65-.93V33.9a97.49,97.49,0,0,1,18.43-1.62c10.08,0,16.57,1.74,21.44,5.68,4.06,3,6.49,7.65,6.49,13.79a16.72,16.72,0,0,1-2,8"/><path class="e46b86c0-91c1-4641-a639-c2803cfce036" d="M761.15,59.53a.46.46,0,0,0,.21.63A.48.48,0,0,0,762,60a.47.47,0,0,0-.21-.63A.46.46,0,0,0,761.15,59.53Z"/><path class="a789a70e-1d66-4514-9c67-37f1f97f20c6" d="M753.43,52.79c0-9.16-6.95-12.75-17.15-12.75a42.87,42.87,0,0,0-8.92.7V65.89h8.7"/><circle class="e46b86c0-91c1-4641-a639-c2803cfce036" cx="736.04" cy="65.89" r="0.47"/><path class="a789a70e-1d66-4514-9c67-37f1f97f20c6" d="M727.36,103.32a53.61,53.61,0,0,0,8.46.46c10.43,0,20-3.82,20-15.18,0-10.66-9.16-15.06-20.17-15.06h-8.34v29.34"/><path class="e46b86c0-91c1-4641-a639-c2803cfce036" d="M726.89,102.85a.47.47,0,1,0,.47-.47A.47.47,0,0,0,726.89,102.85Z"/><line class="a5d735b3-29b9-426b-8226-06185766c8a5" x1="7.14" y1="158.91" x2="966.88" y2="158.91"/><path class="e46b86c0-91c1-4641-a639-c2803cfce036" d="M7.52,166.43A7.52,7.52,0,1,1,15,158.91,7.52,7.52,0,0,1,7.52,166.43Z"/><path class="e46b86c0-91c1-4641-a639-c2803cfce036" d="M966.5,166.43a7.52,7.52,0,1,0-7.51-7.52A7.51,7.51,0,0,0,966.5,166.43Z"/><path class="e46c905a-9d9f-4a9d-8b65-ccad2395b82e" d="M92.2,33.78a117.1,117.1,0,0,1,19.35-1.5c10,0,17.27,2.32,21.9,6.49,4.29,3.71,6.85,9.39,6.85,16.34s-2.09,12.63-6,16.69c-5.33,5.68-14,8.57-23.88,8.57a34.7,34.7,0,0,1-8.11-.69V111H92.2Zm10.08,37.67a33.84,33.84,0,0,0,8.35.81c12.16,0,19.58-5.91,19.58-16.68,0-10.32-7.3-15.31-18.42-15.31a42.43,42.43,0,0,0-9.51.82Z"/><path class="e46c905a-9d9f-4a9d-8b65-ccad2395b82e" d="M156.74,86.4,148.63,111H138.2l26.54-78.11h12.17L203.56,111H192.79L184.44,86.4Zm25.61-7.88L174.71,56c-1.74-5.1-2.9-9.74-4.06-14.26h-.23c-1.16,4.64-2.43,9.39-3.94,14.14l-7.65,22.6Z"/><path class="e46c905a-9d9f-4a9d-8b65-ccad2395b82e" d="M248.18,68.9v.24c7.42,1.85,16.11,8,16.11,19.58a21.08,21.08,0,0,1-6.61,15.65c-5.45,5-14.25,7.3-27,7.3a118.5,118.5,0,0,1-15.65-.93V33.9a97.49,97.49,0,0,1,18.43-1.62C243.54,32.28,250,34,254.9,38c4.06,3,6.49,7.65,6.49,13.79a16.69,16.69,0,0,1-.7,4.8"/><path class="e46b86c0-91c1-4641-a639-c2803cfce036" d="M256.92,54.74a4.14,4.14,0,1,0,5.43-2.2A4.14,4.14,0,0,0,256.92,54.74Z"/><path class="e46c905a-9d9f-4a9d-8b65-ccad2395b82e" d="M251.19,52.79C251.19,43.63,244.24,40,234,40a43,43,0,0,0-8.92.7V65.89h5.22"/><path class="e46b86c0-91c1-4641-a639-c2803cfce036" d="M230.13,70A4.14,4.14,0,1,0,226,65.89,4.13,4.13,0,0,0,230.13,70Z"/><path class="e46c905a-9d9f-4a9d-8b65-ccad2395b82e" d="M225.12,103.32a53.61,53.61,0,0,0,8.46.46c10.43,0,20-3.82,20-15.18,0-10.66-9.16-15.06-20.17-15.06h-8.34V99.39"/><path class="e46b86c0-91c1-4641-a639-c2803cfce036" d="M221,99.19a4.14,4.14,0,1,0,4.14-4.14A4.13,4.13,0,0,0,221,99.19Z"/><polyline class="e46c905a-9d9f-4a9d-8b65-ccad2395b82e" points="287.93 92.59 287.93 102.51 321.3 102.51 321.3 110.97 277.84 110.97 277.84 32.86 287.93 32.86 287.93 53.77"/><path class="e46b86c0-91c1-4641-a639-c2803cfce036" d="M283.79,92.8a4.14,4.14,0,1,1,4.14,4.13A4.14,4.14,0,0,1,283.79,92.8Z"/><path class="e46b86c0-91c1-4641-a639-c2803cfce036" d="M285.3,53.64A2.63,2.63,0,1,0,287.93,51,2.63,2.63,0,0,0,285.3,53.64Z"/><path class="e46c905a-9d9f-4a9d-8b65-ccad2395b82e" d="M394.77,71.1c0,26.89-16.34,41.14-36.27,41.14-20.63,0-35.12-16-35.12-39.63,0-24.8,15.42-41,36.28-41C381,31.58,394.77,47.93,394.77,71.1Zm-60.61,1.28c0,16.68,9,31.63,24.92,31.63s25-14.71,25-32.44c0-15.53-8.11-31.76-24.91-31.76S334.16,55.22,334.16,72.38Z"/><path class="e46c905a-9d9f-4a9d-8b65-ccad2395b82e" d="M432.43,33.78a117.14,117.14,0,0,1,19.36-1.5c10,0,17.26,2.32,21.9,6.49,4.28,3.71,6.84,9.39,6.84,16.34s-2.09,12.63-6,16.69c-5.33,5.68-14,8.57-23.88,8.57a34.7,34.7,0,0,1-8.11-.69V111H432.43Zm10.08,37.67a33.89,33.89,0,0,0,8.35.81c12.16,0,19.58-5.91,19.58-16.68,0-10.32-7.3-15.31-18.42-15.31a42.43,42.43,0,0,0-9.51.82Z"/><path class="e46c905a-9d9f-4a9d-8b65-ccad2395b82e" d="M494.08,32.86h10.09v69.65h33.37V111H494.08Z"/><path class="e46c905a-9d9f-4a9d-8b65-ccad2395b82e" d="M611,71.1c0,26.89-16.34,41.14-36.27,41.14-20.63,0-35.12-16-35.12-39.63,0-24.8,15.41-41,36.28-41C597.22,31.58,611,47.93,611,71.1ZM550.4,72.38c0,16.68,9,31.63,24.92,31.63s25-14.71,25-32.44c0-15.53-8.11-31.76-24.92-31.76S550.4,55.22,550.4,72.38Z"/><path class="e46c905a-9d9f-4a9d-8b65-ccad2395b82e" d="M689.93,76.67c-.58-10.9-1.28-24-1.16-33.73h-.35c-2.67,9.15-5.91,18.89-9.85,29.67l-13.79,37.9h-7.65L644.5,73.3c-3.71-11-6.84-21.08-9-30.36h-.23c-.23,9.74-.82,22.83-1.51,34.54L631.63,111H622l5.45-78.11h12.87l13.32,37.78c3.25,9.62,5.91,18.19,7.89,26.31h.34c2-7.89,4.75-16.46,8.23-26.31L684,32.86h12.86L701.75,111H691.9Z"/><path class="e46c905a-9d9f-4a9d-8b65-ccad2395b82e" d="M820.52,74.35H790.16v28.16H824V111H780.08V32.86h42.18v8.46h-32.1V66h30.36Z"/><path class="e46c905a-9d9f-4a9d-8b65-ccad2395b82e" d="M837.09,33.9a105.33,105.33,0,0,1,19.36-1.62c10.78,0,17.73,2,22.6,6.37,3.94,3.48,6.14,8.81,6.14,14.84,0,10.31-6.49,17.15-14.72,19.93v.35c6,2.09,9.62,7.65,11.48,15.76,2.54,10.89,4.4,18.43,6,21.44H877.54c-1.28-2.2-3-8.92-5.21-18.66-2.32-10.78-6.5-14.83-15.65-15.18h-9.5V111H837.09Zm10.09,35.58h10.31c10.78,0,17.62-5.91,17.62-14.83,0-10.09-7.31-14.49-18-14.61a41.06,41.06,0,0,0-10,.93Z"/><path class="e46c905a-9d9f-4a9d-8b65-ccad2395b82e" d="M750.42,68.9v.24c7.42,1.85,16.11,8,16.11,19.58a21.08,21.08,0,0,1-6.61,15.65c-5.45,5-14.25,7.3-27,7.3a118.5,118.5,0,0,1-15.65-.93V33.9a97.49,97.49,0,0,1,18.43-1.62c10.08,0,16.57,1.74,21.44,5.68,4.06,3,6.49,7.65,6.49,13.79a16.69,16.69,0,0,1-.7,4.8"/><path class="e46b86c0-91c1-4641-a639-c2803cfce036" d="M759.16,54.74a4.14,4.14,0,1,0,5.43-2.2A4.13,4.13,0,0,0,759.16,54.74Z"/><path class="e46c905a-9d9f-4a9d-8b65-ccad2395b82e" d="M753.43,52.79c0-9.16-6.95-12.75-17.15-12.75a42.87,42.87,0,0,0-8.92.7V65.89h5.22"/><circle class="e46b86c0-91c1-4641-a639-c2803cfce036" cx="732.37" cy="65.89" r="4.14"/><path class="e46c905a-9d9f-4a9d-8b65-ccad2395b82e" d="M727.36,103.32a53.61,53.61,0,0,0,8.46.46c10.43,0,20-3.82,20-15.18,0-10.66-9.16-15.06-20.17-15.06h-8.34V99.39"/><path class="e46b86c0-91c1-4641-a639-c2803cfce036" d="M723.22,99.19a4.14,4.14,0,1,0,4.14-4.14A4.13,4.13,0,0,0,723.22,99.19Z"/></g><g id="ae161096-9b40-4c48-891f-7c7a54449ab0" data-name="Capa 3"><polyline class="e3ed8a22-b9d1-44ee-bec1-319bc215d142" points="736.91 135.59 69.57 135.59 69.57 44.1"/><circle class="e46b86c0-91c1-4641-a639-c2803cfce036" cx="736.69" cy="135.59" r="4.51"/><path class="e46b86c0-91c1-4641-a639-c2803cfce036" d="M74.08,44.32a4.52,4.52,0,1,0-4.51,4.52A4.51,4.51,0,0,0,74.08,44.32Z"/><polyline class="b0e38108-e78d-470f-9a7b-7b6e68a825d3" points="439.35 5.08 909.18 5.08 909.18 96.03"/><path class="e46b86c0-91c1-4641-a639-c2803cfce036" d="M439.6,10.15a5.08,5.08,0,1,1,5.08-5.07A5.07,5.07,0,0,1,439.6,10.15Z"/><circle class="e46b86c0-91c1-4641-a639-c2803cfce036" cx="909.18" cy="95.78" r="5.08" transform="translate(32.55 355.22) rotate(-22.5)"/></g><g id="e973525d-e136-4e0d-9cb6-21ba8a092920" data-name="Capa 2"><path class="bfd41985-5bfd-458a-a89e-a4adbb4d0d4d" d="M303.43,233.12c-.35-6.66-.78-14.65-.71-20.6h-.22c-1.62,5.59-3.6,11.54-6,18.12l-8.42,23.14H283.4l-7.72-22.71c-2.26-6.73-4.18-12.89-5.52-18.55H270c-.14,5.95-.5,13.94-.92,21.09l-1.27,20.46H262l3.33-47.71h7.86l8.13,23.07c2,5.88,3.61,11.12,4.82,16.07h.21c1.2-4.81,2.9-10.05,5-16.07l8.5-23.07h7.85l3,47.71h-6Z"/><path class="bfd41985-5bfd-458a-a89e-a4adbb4d0d4d" d="M326.32,206.36V234.6c0,10.69,4.74,15.22,11.11,15.22,7.08,0,11.61-4.67,11.61-15.22V206.36h6.23v27.82c0,14.65-7.72,20.66-18,20.66-9.77,0-17.13-5.59-17.13-20.38v-28.1Z"/><path class="bfd41985-5bfd-458a-a89e-a4adbb4d0d4d" d="M366,206.36h6.16V248.9h20.38v5.17H366Z"/><path class="bfd41985-5bfd-458a-a89e-a4adbb4d0d4d" d="M402.23,211.6H387.72v-5.24H423v5.24H408.46v42.47h-6.23Z"/><path class="bfd41985-5bfd-458a-a89e-a4adbb4d0d4d" d="M434.53,206.36v47.71h-6.16V206.36Z"/><path class="bfd41985-5bfd-458a-a89e-a4adbb4d0d4d" d="M444.44,246.56a21.86,21.86,0,0,0,11.05,3.12c6.3,0,10-3.33,10-8.14,0-4.46-2.55-7-9-9.48-7.79-2.76-12.6-6.8-12.6-13.52,0-7.44,6.15-13,15.43-13a21.68,21.68,0,0,1,10.54,2.34l-1.7,5a18.83,18.83,0,0,0-9.06-2.27c-6.51,0-9,3.89-9,7.15,0,4.46,2.91,6.65,9.49,9.2,8.07,3.11,12.18,7,12.18,14,0,7.36-5.45,13.74-16.71,13.74-4.6,0-9.62-1.35-12.17-3.05Z"/><path class="bfd41985-5bfd-458a-a89e-a4adbb4d0d4d" d="M504.91,231.7H486.37v17.2H507v5.17H480.2V206.36H506v5.17h-19.6v15.08h18.54Z"/><path class="bfd41985-5bfd-458a-a89e-a4adbb4d0d4d" d="M515,207a64,64,0,0,1,11.82-1c6.59,0,10.83,1.2,13.81,3.89a11.9,11.9,0,0,1,3.75,9.06c0,6.3-4,10.47-9,12.17v.22c3.68,1.27,5.88,4.67,7,9.62,1.55,6.65,2.69,11.26,3.68,13.1h-6.37c-.78-1.35-1.84-5.46-3.19-11.4-1.42-6.58-4-9.06-9.55-9.27H521.2v20.67H515Zm6.16,21.73h6.3c6.58,0,10.76-3.61,10.76-9.06,0-6.16-4.46-8.85-11-8.92a25,25,0,0,0-6.09.57Z"/><path class="bfd41985-5bfd-458a-a89e-a4adbb4d0d4d" d="M564.76,254.07l-15.58-47.71h6.66l7.43,23.5c2.05,6.44,3.82,12.24,5.09,17.84h.15c1.34-5.52,3.32-11.54,5.45-17.77L582,206.36h6.58l-17.06,47.71Z"/><path class="bfd41985-5bfd-458a-a89e-a4adbb4d0d4d" d="M600,206.36v47.71h-6.16V206.36Z"/><path class="bfd41985-5bfd-458a-a89e-a4adbb4d0d4d" d="M644.06,252.51c-2.27,1.13-6.8,2.27-12.6,2.27-13.45,0-23.57-8.5-23.57-24.14,0-14.93,10.12-25.06,24.91-25.06,6,0,9.7,1.27,11.33,2.13l-1.49,5a22.48,22.48,0,0,0-9.63-2c-11.18,0-18.61,7.15-18.61,19.68,0,11.67,6.72,19.18,18.33,19.18a24.54,24.54,0,0,0,10-2Z"/><path class="bfd41985-5bfd-458a-a89e-a4adbb4d0d4d" d="M676.5,231.7H658v17.2h20.67v5.17H651.79V206.36h25.77v5.17H658v15.08H676.5Z"/><path class="bfd41985-5bfd-458a-a89e-a4adbb4d0d4d" d="M685.79,246.56a21.79,21.79,0,0,0,11,3.12c6.3,0,10-3.33,10-8.14,0-4.46-2.55-7-9-9.48-7.79-2.76-12.6-6.8-12.6-13.52,0-7.44,6.16-13,15.43-13a21.73,21.73,0,0,1,10.55,2.34l-1.7,5a18.9,18.9,0,0,0-9.06-2.27c-6.52,0-9,3.89-9,7.15,0,4.46,2.9,6.65,9.48,9.2,8.07,3.11,12.18,7,12.18,14,0,7.36-5.45,13.74-16.71,13.74-4.6,0-9.62-1.35-12.17-3.05Z"/><line class="e3ed8a22-b9d1-44ee-bec1-319bc215d142" x1="250.13" y1="283.7" x2="723.9" y2="283.7"/><path class="e46b86c0-91c1-4641-a639-c2803cfce036" d="M250.53,291.82a8.12,8.12,0,1,1,8.12-8.12A8.13,8.13,0,0,1,250.53,291.82Z"/><path class="e46b86c0-91c1-4641-a639-c2803cfce036" d="M723.49,291.82a8.12,8.12,0,1,0-8.12-8.12A8.12,8.12,0,0,0,723.49,291.82Z"/></g></g></svg>